<svg width="20" height="20" viewBox="0 0 20 20" fill="none" xmlns="http://www.w3.org/2000/svg">
<path fill-rule="evenodd" clip-rule="evenodd" d="M1.87868 3.87868C1 4.75736 1 6.17157 1 9V11C1 13.8284 1 15.2426 1.87868 16.1213C2.75736 17 4.17157 17 7 17H13C15.8284 17 17.2426 17 18.1213 16.1213C19 15.2426 19 13.8284 19 11V9C19 6.17157 19 4.75736 18.1213 3.87868C17.2426 3 15.8284 3 13 3H7C4.17157 3 2.75736 3 1.87868 3.87868ZM4.5547 6.16795C4.09517 5.8616 3.4743 5.98577 3.16795 6.4453C2.8616 6.90483 2.98577 7.5257 3.4453 7.83205L8.8906 11.4622C9.5624 11.9101 10.4376 11.9101 11.1094 11.4622L16.5547 7.83205C17.0142 7.5257 17.1384 6.90483 16.8321 6.4453C16.5257 5.98577 15.9048 5.8616 15.4453 6.16795L10 9.79815L4.5547 6.16795Z" fill="white"/>
</svg>
